<?xml version="1.0" encoding="UTF-8" standalone="no"?>
<!-- Created with Inkscape (http://www.inkscape.org/) -->
<svg id="svg2" xmlns:rdf="http://www.w3.org/1999/02/22-rdf-syntax-ns#" xmlns="http://www.w3.org/2000/svg" xmlns:osb="http://www.openswatchbook.org/uri/2009/osb" height="141.29mm" width="141.13mm" version="1.1" xmlns:cc="http://creativecommons.org/ns#" viewBox="0 0 500.06666 500.63847" xmlns:dc="http://purl.org/dc/elements/1.1/">
 <defs id="defs4">
  <filter id="filter5855" style="color-interpolation-filters:sRGB" height="1.2352" width="1.2352" y="-.11759" x="-.11761">
   <feGaussianBlur id="feGaussianBlur5857" stdDeviation="27.512611"/>
  </filter>
 </defs>
 <metadata id="metadata7">
  <rdf:RDF>
   <cc:Work rdf:about="">
    <dc:format>image/svg+xml</dc:format>
    <dc:type rdf:resource="http://purl.org/dc/dcmitype/StillImage"/>
    <dc:title/>
   </cc:Work>
  </rdf:RDF>
 </metadata>
 <g id="layer1" transform="translate(-126 -5.2392)">
  <path id="rect4140-4" d="m151.06-87v561.55h411.3l150.12-160.6v-400.95h-561.42z" fill-opacity=".79255" transform="matrix(.72110 0 0 .72179 64.681 115.69)" filter="url(#filter5855)"/>
  <g>
   <path id="rect4140" d="m170.42 31.374v418.58h306.29l111.79-119.71v-298.87h-418.08z" fill="#40806a"/>
   <path id="path4159" d="m476.93 450.07 111.79-119.71-112.01-0.12z" fill="#f5f7fa"/>
   <path id="path4167" d="m259.39 113.06v282.11h36.671v-125.6c0-21.693 5.6838-38.823 17.049-51.39 11.365-12.566 26.892-18.849 46.583-18.849 16.387 0 28.677 5.2249 36.87 15.675 8.1934 10.45 12.291 26.192 12.291 47.224v132.94h36.473v-134.13c0-30.688-6.5426-53.903-19.626-69.644-13.083-15.873-32.376-23.81-57.882-23.81-15.462 0-29.14 3.3072-41.034 9.9211-11.761 6.6139-22.003 16.599-30.725 29.959v-121.03h-9.8757l0.39378 0.39416-26.699 26.724-0.49018-0.49066z" fill="#f5f7fa"/>
   <path id="text3336" d="m286.58 86.926-0.49018-0.49066-26.699 26.724 0.39378 0.39416h26.795v-26.628z" fill="#85debf"/>
  </g>
 </g>
</svg>
